<svg width="1440" height="2288" viewBox="0 0 1440 2288" fill="none" xmlns="http://www.w3.org/2000/svg">
<path opacity="0.6" d="M0 60.006C0 48.8246 3.77933 37.8573 12.7591 31.195C29.8238 18.5345 65.2632 0 126.5 0C219.5 0 467.5 22.3243 645.5 18.0494C823.5 13.7745 899 0 1139 42.7486C1233.58 59.5956 1300.36 63.164 1346.57 61.3033C1387 59.6751 1440 98.3806 1440 138.844V2165.38C1440 2188.97 1423.54 2209.35 1400.51 2214.44C1374.58 2220.18 1338.2 2228.34 1298.5 2237.65C1221.5 2255.7 1163 2278.5 966 2278.5C769 2278.5 517 2299.87 313 2278.5C170.545 2263.57 74.4149 2234.06 29.378 2217.6C11.1863 2210.96 0 2193.47 0 2174.1V60.006Z" fill="#EF476F"/>
</svg>
