<svg width="1450" height="3779" viewBox="0 0 1450 3779" fill="none" xmlns="http://www.w3.org/2000/svg">
<path opacity="0.6" d="M23.2344 3469.42C23.619 3519.69 32.6311 3570.27 61.913 3611.13C111.221 3679.94 212.364 3778.17 387.956 3778.17C658.196 3778.18 989.22 3778.18 1222.6 3778.18C1442.52 3778.18 1449 3445.43 1449.02 3407.05C1449.02 3404.57 1449 3402.22 1449 3399.74V463.63C1449 289.252 1336.03 134.969 1169.8 82.3066L1080.87 54.134C1067.34 49.8469 1053.81 46.3169 1039.85 43.7454C940.043 25.3601 505.357 -46.9626 305.833 47.699C132.036 130.155 -0.932105 310.351 0.53943 502.711L23.2344 3469.42Z" fill="#EF476F"/>
</svg>
