<svg width="1440" height="500" viewBox="0 0 1440 500" fill="none" xmlns="http://www.w3.org/2000/svg">
<g clip-path="url(#clip0_430_2402)">
<rect width="1440" height="500" rx="20" fill="white"/>
<path d="M1440 0H0V500H1440V0Z" fill="#FFE6E6"/>
<mask id="mask0_430_2402" style="mask-type:luminance" maskUnits="userSpaceOnUse" x="0" y="0" width="1440" height="500">
<path d="M1440 0H0V500H1440V0Z" fill="white"/>
</mask>
<g mask="url(#mask0_430_2402)">
<path d="M860.509 648.792C834.687 645.667 808.438 640.606 785.978 626.972C763.518 613.338 745.263 589.643 743.684 562.614C741.697 528.59 765.185 499.125 773.813 466.244C784.424 425.804 771.994 382.802 775.015 340.997C777.956 300.286 796.64 260.523 827.416 235.244C858.193 209.965 900.977 200.393 938.302 212.849C968.219 222.833 993.559 245.732 1024.38 252.07C1059.66 259.326 1095.31 243.647 1127.32 226.577C1159.34 209.507 1192.14 190.182 1228.11 189.515C1264.99 188.831 1301.55 209.818 1320.69 242.661C1351.19 294.983 1335.98 364.127 1358.54 420.649C1366.4 440.345 1378.6 457.804 1387.9 476.807C1397.2 495.809 1403.64 517.689 1398.73 538.396C1392.76 563.58 1371.46 581.527 1349.67 594.093C1295.1 625.566 1232.06 634.505 1170.68 638.283C1106.15 642.255 1042.01 650.98 977.273 653.057C938.322 654.306 899.247 653.481 860.509 648.792Z" fill="#7DD5FF"/>
<path d="M931.14 682C896.76 682 865.303 680.229 835.727 676.648C808.982 673.412 778.119 667.965 751.994 652.107C724.098 635.173 705.75 607.21 704.109 579.127C702.697 554.967 712.759 532.532 722.489 510.837C728.259 497.971 734.225 484.668 737.791 471.079C744.813 444.317 742.668 415.886 740.594 388.393C739.184 369.706 737.725 350.384 739.09 331.513C742.485 284.521 764.547 240.01 798.103 212.45C833.864 183.077 881.777 173.407 923.146 187.212C937.99 192.165 951.993 200.034 965.533 207.644C982.506 217.182 1000.06 227.045 1019.1 230.96C1057.73 238.907 1096.75 222.037 1133.16 202.625C1136.1 201.054 1139.06 199.464 1142.02 197.872C1175 180.13 1209.11 161.783 1246.26 161.095C1288.06 160.34 1329.1 183.875 1350.8 221.104C1369.63 253.409 1373.04 291.993 1376.34 329.306C1379.05 359.981 1381.85 391.7 1393.15 420.008C1398.36 433.061 1405.43 445.481 1412.27 457.491C1416.9 465.624 1421.69 474.034 1425.89 482.607C1438.73 508.848 1442.84 532.31 1438.08 552.341C1432.41 576.251 1413.76 597.472 1382.66 615.415C1319.08 652.086 1245.67 661.02 1182.25 664.923C1152.25 666.77 1121.81 669.585 1092.38 672.307C1051.13 676.121 1008.48 680.065 966.284 681.42C954.227 681.806 942.522 682 931.14 682ZM884.463 183.824C854.593 183.824 824.277 194.52 799.768 214.651C766.794 241.735 745.114 285.5 741.773 331.723C740.425 350.378 741.875 369.591 743.277 388.172C745.37 415.905 747.535 444.584 740.388 471.818C736.762 485.637 730.746 499.051 724.929 512.023C714.899 534.385 705.426 555.507 706.796 578.956C708.383 606.114 726.221 633.215 753.349 649.682C779.048 665.282 809.57 670.658 836.038 673.862C875.275 678.611 917.853 680.166 966.203 678.614C1008.33 677.264 1050.93 673.322 1092.14 669.512C1121.6 666.788 1152.05 663.971 1182.1 662.122C1245.21 658.237 1318.25 649.357 1381.35 612.959C1411.78 595.409 1429.99 574.787 1435.47 551.665C1440.07 532.309 1436.03 509.502 1423.49 483.878C1419.33 475.385 1414.56 467.015 1409.95 458.92C1403.07 446.825 1395.95 434.319 1390.66 421.082C1379.21 392.38 1376.39 360.445 1373.66 329.561C1370.39 292.564 1367.01 254.309 1348.5 222.558C1327.29 186.166 1287.23 163.123 1246.31 163.898C1209.79 164.574 1175.96 182.768 1143.25 200.363C1140.29 201.957 1137.33 203.548 1134.38 205.121C1097.54 224.763 1058.02 241.82 1018.58 233.71C999.137 229.713 981.405 219.748 964.257 210.111C950.823 202.562 936.932 194.756 922.325 189.881C910.121 185.81 897.332 183.824 884.463 183.824Z" fill="#EF476F"/>
</g>
<mask id="mask1_430_2402" style="mask-type:luminance" maskUnits="userSpaceOnUse" x="0" y="0" width="1440" height="500">
<path d="M1440 0H0V500H1440V0Z" fill="white"/>
</mask>
<g mask="url(#mask1_430_2402)">
<path d="M821.372 509.602L816.458 261.885C816.458 261.885 814.487 244.37 799.025 213.292C799.025 213.292 782.581 189.202 794.216 134.547C796.876 122.587 799.29 110.561 801.83 98.5717C803.395 91.1827 804.245 82.9597 807.035 75.9617C808.337 72.6987 810.514 70.7627 813.863 70.1397C818.199 69.3327 820.282 73.3477 821.144 77.1827C819.741 70.9387 826.546 66.2737 831.634 65.4117C835.326 64.7857 838.79 65.9877 840.232 69.8437C841.355 72.8457 841.275 76.3927 840.909 79.5387C840.792 80.5467 840.64 81.5507 840.489 82.5537C839.164 91.3267 839.052 100.448 838.414 109.312C838.119 113.396 837.826 117.48 837.532 121.564C837.418 123.151 837.574 125.115 837.165 126.657L848.819 82.7527C848.819 82.7527 850.401 73.7987 859.846 74.4217C859.846 74.4217 865.978 75.1047 864.455 87.5107L856.705 131.884C858.223 127.742 859.739 123.6 861.257 119.458C862.402 116.336 863.545 113.213 864.689 110.091C865.706 107.316 866.447 103.711 868.572 101.651C869.051 101.187 869.64 100.77 870.294 100.78C871.052 100.792 871.689 101.372 872.172 101.985C875.204 105.838 874.222 111.475 873.457 115.963C872.544 121.322 872.026 126.713 871.424 132.119C870.608 139.448 869.793 146.778 868.977 154.107C868.974 154.132 868.971 154.157 868.968 154.182C868.968 154.184 866.312 176.66 872.719 191.724C872.719 191.724 885.707 216.462 877.702 244.149L875.776 250.825L906.37 501.956L821.372 509.602Z" fill="#793726"/>
<path d="M817.092 158.337C817.045 158.34 816.998 158.341 816.951 158.339C816.343 158.304 815.876 157.763 815.909 157.13L820.043 77.1246C820.076 76.4906 820.596 76.0066 821.203 76.0386C821.812 76.0736 822.278 76.6146 822.246 77.2476L818.112 157.253C818.081 157.836 817.638 158.295 817.092 158.337Z" fill="#551B0A"/>
<path d="M853.245 180.167C831.769 181.808 815.965 172.36 815.784 172.25C815.259 171.929 815.082 171.226 815.389 170.678C815.697 170.129 816.372 169.945 816.899 170.266C817.099 170.388 837.273 182.412 862.804 176.36C863.395 176.217 863.989 176.607 864.124 177.226C864.258 177.844 863.887 178.46 863.292 178.601C859.84 179.421 856.477 179.92 853.245 180.167Z" fill="#551B0A"/>
<path d="M859.929 52.093C837.849 53.843 834.353 77.598 834.353 77.598C834.353 77.598 827.443 54.671 805.363 56.423C790.236 57.629 776.957 70.267 778.597 92.935C781.117 127.287 840.32 158.843 840.32 158.843C840.32 158.843 894.196 118.297 891.676 83.944C890.041 61.272 875.059 50.894 859.929 52.093Z" fill="#D2242F"/>
<path d="M805.018 177.981C805.018 177.981 805.444 164.411 809.28 156.053L808.65 123.553C808.65 123.553 805.044 107.699 818.294 111.295C818.294 111.295 831.08 108.302 830.412 161.638C830.361 165.787 837.406 173.837 840.646 175.5C851.158 180.893 854.672 192.421 855.214 203.85C855.38 207.352 856.065 234.628 852.456 235.13C852.453 235.13 811.107 240.88 805.018 177.981Z" fill="#793726"/>
<path d="M810.352 120.255C810.244 114.513 814.944 112.149 819.409 115.36C821.212 116.657 826.825 124.541 824.446 126.666C818.548 131.918 812.255 128.942 812.255 128.942L810.352 120.255Z" fill="#88493C"/>
<path d="M854.779 230.153C854.697 230.159 854.613 230.156 854.529 230.142C853.927 230.045 853.514 229.458 853.608 228.831C859.88 186.71 842.862 178.411 842.689 178.332L842.546 178.254C830.25 170.32 829.347 162.097 829.314 161.751L829.307 161.673L829.309 161.595C829.879 146.577 827.787 132.026 827.766 131.881C826.576 121.734 823.718 115.165 819.498 112.849C815.761 110.799 812.14 112.714 812.104 112.732L811.907 112.814C811.712 112.881 806.828 114.673 809.913 125.414L809.955 125.561L810.662 155.328C810.677 155.963 810.183 156.475 809.587 156.505C808.978 156.521 808.473 156.019 808.457 155.385L807.757 125.924C806.308 120.797 806.336 116.732 807.842 113.836C809.021 111.57 810.702 110.82 811.175 110.646C811.853 110.306 816.084 108.376 820.527 110.814C825.486 113.535 828.658 120.517 829.953 131.567C829.969 131.68 832.084 146.376 831.519 161.585C831.628 162.293 832.96 169.34 843.647 176.26C845.187 176.995 862.195 186.167 855.789 229.183C855.708 229.722 855.279 230.114 854.779 230.153Z" fill="#551B0A"/>
<path d="M1258.11 509.601L1258.94 261.833C1258.94 261.833 1260.62 244.285 1275.57 212.935C1275.57 212.935 1291.61 188.554 1279.08 134.115C1276.22 122.204 1273.61 110.223 1270.87 98.2824C1269.18 90.9234 1268.2 82.7164 1265.29 75.7684C1263.94 72.5284 1261.73 70.6324 1258.37 70.0694C1254.02 69.3404 1252.01 73.3914 1251.21 77.2414C1252.51 70.9734 1245.63 66.4304 1240.53 65.6594C1236.82 65.0994 1233.38 66.3634 1232 70.2454C1230.93 73.2664 1231.07 76.8114 1231.48 79.9514C1231.62 80.9574 1231.79 81.9584 1231.95 82.9584C1233.42 91.7064 1233.68 100.823 1234.47 109.675C1234.83 113.753 1235.19 117.831 1235.55 121.909C1235.69 123.493 1235.57 125.46 1236 126.995L1223.63 83.3064C1223.63 83.3064 1221.9 74.3824 1212.47 75.1734C1212.47 75.1734 1206.35 75.9664 1208.07 88.3434L1216.56 132.571C1214.97 128.457 1213.38 124.342 1211.8 120.228C1210.6 117.127 1209.41 114.025 1208.21 110.923C1207.15 108.167 1206.35 104.575 1204.19 102.554C1203.71 102.099 1203.11 101.692 1202.46 101.714C1201.7 101.74 1201.07 102.331 1200.6 102.952C1197.63 106.859 1198.7 112.477 1199.54 116.951C1200.55 122.293 1201.15 127.674 1201.84 133.068C1202.78 140.382 1203.72 147.696 1204.65 155.009C1204.65 155.034 1204.66 155.059 1204.66 155.084C1204.66 155.086 1207.69 177.511 1201.53 192.687C1201.53 192.687 1188.95 217.654 1197.41 245.193L1199.45 251.834L1173 503.475L1258.11 509.601Z" fill="#F68652"/>
<path d="M1256.6 158.312C1256.05 158.28 1255.6 157.829 1255.56 157.246L1250.11 77.3272C1250.06 76.6942 1250.52 76.1452 1251.13 76.0992C1251.74 76.0582 1252.26 76.5322 1252.31 77.1642L1257.76 157.083C1257.8 157.716 1257.34 158.265 1256.74 158.311C1256.69 158.314 1256.64 158.314 1256.6 158.312Z" fill="#E0632A"/>
<path d="M1220.81 180.787C1217.57 180.598 1214.2 180.16 1210.73 179.402C1210.14 179.272 1209.76 178.663 1209.88 178.042C1210.01 177.421 1210.59 177.018 1211.19 177.153C1236.81 182.749 1256.79 170.364 1256.99 170.238C1257.51 169.908 1258.19 170.08 1258.5 170.623C1258.82 171.165 1258.65 171.871 1258.13 172.201C1257.95 172.314 1242.3 182.044 1220.81 180.787Z" fill="#E0632A"/>
<path d="M1212.01 52.8497C1234.12 54.2047 1238.01 77.8937 1238.01 77.8937C1238.01 77.8937 1244.54 54.8457 1266.64 56.2027C1281.79 57.1387 1295.27 69.5367 1294.01 92.2307C1292.05 126.623 1233.38 159.233 1233.38 159.233C1233.38 159.233 1178.84 119.657 1180.8 85.2637C1182.06 62.5657 1196.87 51.9217 1212.01 52.8497Z" fill="#D2242F"/>
<path d="M1268.99 177.739C1268.99 177.739 1268.34 164.178 1264.37 155.89L1264.46 123.384C1264.46 123.384 1267.81 107.468 1254.62 111.3C1254.62 111.3 1241.79 108.536 1243.33 161.853C1243.45 166.001 1236.54 174.175 1233.33 175.895C1222.91 181.475 1219.58 193.064 1219.23 204.502C1219.12 208.006 1218.89 235.291 1222.5 235.728C1222.51 235.729 1263.94 240.738 1268.99 177.739Z" fill="#F68652"/>
<path d="M1262.71 120.116C1262.72 114.373 1257.98 112.093 1253.57 115.383C1251.79 116.712 1246.31 124.695 1248.72 126.778C1254.71 131.924 1260.95 128.836 1260.95 128.836L1262.71 120.116Z" fill="#FFA379"/>
<path d="M1220.1 230.792C1219.6 230.763 1219.16 230.378 1219.07 229.84C1211.96 186.948 1228.81 177.472 1230.34 176.708C1240.89 169.614 1242.12 162.559 1242.23 161.816C1241.41 146.62 1243.28 131.891 1243.3 131.743C1244.41 120.705 1247.46 113.668 1252.38 110.858C1256.78 108.341 1261.04 110.194 1261.73 110.522C1262.2 110.687 1263.89 111.407 1265.11 113.652C1266.66 116.519 1266.76 120.584 1265.39 125.736L1265.18 155.206C1265.18 155.84 1264.68 156.351 1264.07 156.346C1263.45 156.319 1262.97 155.823 1262.98 155.188L1263.19 125.413L1263.23 125.265C1264.78 119.52 1264.06 116.394 1263.19 114.783C1262.28 113.103 1261.04 112.707 1261.03 112.703L1260.83 112.624C1260.68 112.549 1257.1 110.766 1253.41 112.889C1249.25 115.293 1246.51 121.907 1245.49 132.017C1245.47 132.196 1243.62 146.783 1244.43 161.788L1244.44 161.866L1244.43 161.944C1244.41 162.291 1243.64 170.529 1231.47 178.682L1231.33 178.765C1231.16 178.845 1214.28 187.447 1221.25 229.449C1221.35 230.074 1220.95 230.669 1220.35 230.776C1220.26 230.792 1220.18 230.796 1220.1 230.792Z" fill="#E0632A"/>
<path d="M924.904 507.319L946.966 266.02C946.966 266.02 948.069 236.145 940.348 216.037L935.936 198.227C935.936 198.227 924.353 182.715 946.966 162.032L970.131 144.222C970.131 144.222 985.022 133.306 997.708 159.734C997.708 159.734 1006.53 173.522 1006.53 184.438C1006.53 184.438 1014.25 199.376 1014.25 206.27C1014.25 206.27 1015.36 220.058 998.257 225.804C997.845 226.033 1004.28 240.519 1004.81 241.799C1008.03 249.657 1007.64 260.389 1003.22 267.743C1003.22 267.745 997.708 276.935 997.708 276.935L1005.98 508.467L924.904 507.319Z" fill="#F68652"/>
<path d="M989.066 202.822C988.848 202.822 988.627 202.755 988.435 202.615C987.936 202.251 987.814 201.536 988.163 201.015C1003.75 177.76 996.77 160.368 996.697 160.194C996.454 159.613 996.708 158.936 997.265 158.681C997.822 158.428 998.471 158.689 998.717 159.269C999.035 160.02 1006.32 177.951 989.971 202.331C989.757 202.651 989.414 202.822 989.066 202.822Z" fill="#E0632A"/>
<path d="M992.745 209.335C992.44 209.335 992.138 209.205 991.92 208.95C991.516 208.475 991.556 207.749 992.011 207.327C1001.57 198.477 1005.43 184.275 1005.47 184.132C1005.63 183.521 1006.24 183.16 1006.83 183.331C1007.41 183.5 1007.76 184.133 1007.6 184.744C1007.43 185.352 1003.53 199.733 993.477 209.045C993.266 209.239 993.005 209.335 992.745 209.335Z" fill="#E0632A"/>
<path d="M994.582 219.294C994.135 219.294 993.713 219.008 993.548 218.545C993.335 217.95 993.626 217.289 994.197 217.068C1009.16 211.268 1011.06 197.15 1011.14 196.552C1011.21 195.924 1011.76 195.48 1012.37 195.557C1012.97 195.637 1013.4 196.21 1013.33 196.838C1013.25 197.492 1011.22 212.922 994.966 219.221C994.84 219.27 994.71 219.294 994.582 219.294Z" fill="#E0632A"/>
<path d="M998.97 80.0206C976.826 80.0826 971.672 103.508 971.672 103.508C971.672 103.508 966.392 80.1146 944.247 80.1786C929.076 80.2286 914.944 91.8206 914.988 114.553C915.088 149.006 971.916 184.989 971.916 184.989C971.916 184.989 1028.5 148.658 1028.4 114.206C1028.36 91.4696 1014.14 79.9776 998.97 80.0206Z" fill="#D2242F"/>
<path d="M951.93 193.63L957.446 160.308C957.446 160.308 955.607 134.263 971.786 130.433C971.786 130.433 983.919 123.156 981.346 152.648L980.243 184.438C980.243 184.438 992.744 205.504 994.583 221.59C994.583 221.59 1001.57 257.785 974.36 239.783C974.36 239.783 956.71 227.91 954.504 220.632C954.504 220.632 949.356 210.291 951.93 193.63Z" fill="#F68652"/>
<path d="M994.581 222.74C994.03 222.74 993.554 222.311 993.488 221.727C991.699 206.082 979.428 185.252 979.305 185.043L979.129 184.746L980.243 152.607C981.603 137.015 978.716 132.636 976.875 131.408C974.767 130 972.36 131.416 972.337 131.43L972.031 131.555C956.952 135.125 958.528 159.975 958.546 160.226L958.556 160.366L953.018 193.827C952.914 194.452 952.349 194.872 951.743 194.764C951.142 194.656 950.74 194.062 950.843 193.437L956.337 160.25C956.194 157.903 955.098 133.354 971.397 129.349C972.132 128.959 975.192 127.557 978.065 129.474C982.086 132.155 983.559 139.988 982.446 152.754L981.358 184.136C982.952 186.87 993.93 206.158 995.679 221.457C995.751 222.087 995.319 222.659 994.715 222.734C994.668 222.738 994.624 222.74 994.581 222.74Z" fill="#E0632A"/>
<path d="M963.328 148.243C962.833 148.189 963.689 143.878 963.804 143.354C964.881 138.417 969.091 134.427 973.999 133.878C978.753 133.345 979.451 138.213 979.126 142.089C979.073 142.721 977.94 149.846 977.299 149.775C977.299 149.775 963.355 148.246 963.328 148.243Z" fill="#FFA379"/>
<path d="M1130.26 131.546C1108.11 131.608 1102.96 155.033 1102.96 155.033C1102.96 155.033 1097.68 131.64 1075.53 131.704C1060.36 131.754 1046.23 143.346 1046.27 166.078C1046.37 200.53 1103.2 236.514 1103.2 236.514C1103.2 236.514 1159.78 200.183 1159.68 165.731C1159.64 142.996 1145.43 131.503 1130.26 131.546Z" fill="#D2242F"/>
<path d="M1152.34 529L1120.87 327.746C1120.87 327.746 1117.72 317.913 1127.79 302.18L1146.04 271.369C1146.04 271.369 1158 260.225 1141.64 249.08L1125.28 205.814C1125.28 205.814 1122.76 198.603 1103.88 204.503C1103.88 204.503 1078.08 211.714 1068.64 212.37C1068.64 212.37 1061.08 220.237 1068.64 223.514L1057.31 236.297C1057.31 236.297 1053.85 243.508 1063.6 242.852C1063.6 242.852 1056.36 254.98 1070.84 252.357L1065.81 267.107C1065.81 267.107 1068.64 276.285 1079.34 263.829L1082.8 259.568L1093.5 258.912C1093.5 258.912 1071.15 268.745 1071.47 301.851L1072.41 312.995L1077.13 528.671L1152.34 529Z" fill="#FF928D"/>
<path d="M1121.5 262.682C1121.96 262.682 1122.4 262.452 1122.68 262.025C1123.11 261.347 1122.94 260.431 1122.29 259.98C1120.07 258.44 1118.01 255.947 1116.02 253.537C1115.07 252.387 1114.17 251.303 1113.26 250.307C1112.23 249.199 1111.25 247.927 1110.22 246.579C1107.62 243.207 1104.93 239.721 1101.04 238.075C1094.91 235.482 1088.46 238.717 1083.28 241.318C1082.58 241.669 1081.84 242.017 1081.08 242.374C1076.62 244.468 1071.58 246.842 1069.54 251.774C1069.23 252.522 1069.56 253.389 1070.28 253.712C1071 254.031 1071.83 253.689 1072.14 252.94C1073.74 249.06 1078.26 246.936 1082.24 245.063C1083.02 244.695 1083.79 244.337 1084.5 243.978C1089.19 241.629 1095.01 238.711 1099.98 240.808C1103.18 242.165 1105.63 245.347 1108.01 248.425C1109.04 249.765 1110.1 251.148 1111.21 252.352C1112.08 253.287 1112.95 254.343 1113.87 255.46C1115.99 258.021 1118.17 260.669 1120.71 262.434C1120.96 262.603 1121.23 262.682 1121.5 262.682Z" fill="#F34845"/>
<path d="M1128.11 251.374C1128.5 251.374 1128.89 251.208 1129.16 250.881C1129.69 250.273 1129.63 249.341 1129.05 248.798L1107.21 228.496C1106.31 227.275 1100.71 220.844 1086.49 227.155C1085.73 227.509 1068.54 235.626 1062.6 241.81C1062.05 242.386 1062.05 243.319 1062.6 243.896C1063.15 244.472 1064.05 244.472 1064.6 243.896C1070.18 238.09 1087.45 229.938 1087.63 229.857C1100.76 224.026 1104.94 230.251 1104.98 230.314L1105.22 230.596L1127.16 251C1127.43 251.25 1127.77 251.374 1128.11 251.374Z" fill="#F34845"/>
<path d="M1132.36 240.804C1132.68 240.804 1133.01 240.688 1133.28 240.451C1133.87 239.923 1133.94 238.991 1133.43 238.372L1129.4 233.447C1126.46 229.842 1123.51 226.237 1120.55 222.65C1120.16 222.177 1119.76 221.694 1119.37 221.206C1114.91 215.726 1109.85 209.556 1101.81 209.79C1095.35 210.013 1089.38 212.708 1083.62 215.316C1082.05 216.025 1080.43 216.757 1078.85 217.411C1075.44 218.826 1071.92 220.381 1068.06 222.166C1067.35 222.497 1067.02 223.369 1067.34 224.114C1067.66 224.858 1068.5 225.194 1069.21 224.863C1073.03 223.093 1076.53 221.552 1079.9 220.152C1081.51 219.482 1083.16 218.739 1084.74 218.022C1090.27 215.524 1095.98 212.942 1101.9 212.738C1108.53 212.509 1112.96 217.899 1117.21 223.113C1117.61 223.606 1118 224.095 1118.4 224.575C1121.36 228.159 1124.3 231.76 1127.25 235.36L1131.28 240.288C1131.56 240.629 1131.96 240.804 1132.36 240.804Z" fill="#F34845"/>
</g>
<mask id="mask2_430_2402" style="mask-type:luminance" maskUnits="userSpaceOnUse" x="0" y="0" width="1440" height="500">
<path d="M1440 0H0V500H1440V0Z" fill="white"/>
</mask>
<g mask="url(#mask2_430_2402)">
<path d="M679.441 88.8979C674.535 94.0919 660.572 107.538 655.367 98.8169C646.807 84.4729 671.07 68.5279 679.82 68.6699C692.691 68.8789 684.3 83.7529 679.441 88.8979Z" fill="#06D6A0"/>
<path d="M693.592 55.4211C685.44 59.2111 675.327 59.1741 667.147 55.6061C661.615 53.1931 658.36 46.8241 663.369 40.6081C671.169 32.9381 681.771 32.1051 693.025 36.8631C696.485 38.3261 700.776 40.9661 701.185 45.2901C701.642 50.1041 697.343 53.6781 693.592 55.4211Z" fill="#06D6A0"/>
<path d="M691.287 96.508C687.363 89.206 688.83 80.884 691.968 73.907C695.42 66.233 704.347 58.789 710.259 68.551C715.168 76.657 714.477 92.392 708.433 99.805C706.361 102.346 697.71 108.461 691.287 96.508Z" fill="#06D6A0"/>
<path d="M725.036 87.2598C714.459 86.6988 710.232 67.2618 714.547 56.6218C718.428 47.0558 728.603 38.4568 736.573 48.7258C742.294 56.0958 741.55 67.7218 737.32 75.6478C733.867 82.1208 729.68 87.5058 725.036 87.2598Z" fill="#06D6A0"/>
<path d="M696.615 31.1025C688.34 27.1045 690.179 18.7435 697.512 15.5585C705.77 11.6075 710.873 9.93153 716.207 9.98053C724.095 10.0535 731.616 17.1825 726.363 25.2995C720.596 34.2115 705.271 35.2845 696.615 31.1025Z" fill="#06D6A0"/>
<path d="M746.097 41.0108C745.873 34.3268 749.489 27.1408 754.497 23.9608C760.724 20.0058 768.666 23.6198 770.437 30.7638C772.337 38.4278 768.521 48.3238 762.399 53.5238C757.473 57.7068 746.613 56.4708 746.097 41.0108Z" fill="#06D6A0"/>
<path d="M782.671 17.9056C782.43 10.6846 786.335 2.92164 791.746 -0.514362C798.473 -4.78736 807.054 -0.883361 808.967 6.83464C811.02 15.1136 806.897 25.8056 800.283 31.4236C794.961 35.9436 783.228 34.6086 782.671 17.9056Z" fill="#06D6A0"/>
<path d="M719.289 -8.37125C720.444 -19.2583 736.678 -19.6823 743.238 -19.1963C749.827 -18.7093 759.845 -15.7373 760.267 -7.33225C760.825 3.77875 746.985 11.7387 737.736 10.3497C729.362 9.09175 718.42 -0.186255 719.289 -8.37125Z" fill="#06D6A0"/>
<path d="M701.821 93.6098C701.538 94.6448 700.067 94.1958 700.289 93.1598C703.943 76.0808 710.097 59.7448 714 42.7288C697.989 56.0388 682.61 70.1438 668.542 85.5458C667.839 86.3148 666.757 85.1538 667.435 84.3788C679.313 70.8148 692.279 58.3258 705.843 46.5368C696.182 46.1408 686.72 46.2238 677.396 49.6308C676.885 49.8178 676.539 48.9258 677.042 48.6968C686.044 44.5968 698.13 42.5378 707.936 44.7328C710.219 42.7698 727.018 28.9988 732.398 24.7938C722.748 22.6448 711.551 21.7338 702.548 26.1498C702.131 26.3548 701.599 25.7538 702.021 25.4198C710.077 19.0388 724.949 20.2338 734.227 23.3608C741.923 17.3788 762.973 1.71981 765.738 -0.277187C753.469 -2.28519 741.908 -0.689186 729.507 -0.204185C728.627 -0.170185 728.663 -1.57119 729.533 -1.62319C742.147 -2.37419 755.614 -6.07619 767.991 -1.89819C780.527 -10.8862 793.344 -19.5112 806.501 -27.5052C798.751 -29.8932 775.538 -36.2542 757.16 -32.7702C756.65 -32.6732 756.3 -33.3012 756.771 -33.4932C773.931 -40.4892 800.36 -32.6112 808.879 -28.9422C826.092 -39.2652 843.891 -48.4782 862.429 -55.9372C863.496 -56.3662 864.24 -54.4392 863.175 -53.9662C846.019 -46.3562 829.415 -37.6932 813.266 -28.1882C813.206 -27.9452 799.098 7.68082 794.79 25.2108C794.535 26.2438 793.071 25.7888 793.275 24.7658C796.792 7.04982 810.324 -26.2632 810.13 -26.3292C798.222 -19.2132 786.559 -11.6452 775.116 -3.68819C762.92 12.5238 762.73 32.4448 756.774 51.2878C756.524 52.0788 755.404 51.7478 755.582 50.9378C759.381 33.6778 760.884 13.2358 771.63 -1.25819C767.602 1.58081 743.509 19.3608 735.535 25.5218C733.532 33.7718 733.787 42.5028 732.077 50.8348C730.165 60.1498 727.583 69.2448 726.122 78.6648C725.998 79.4608 724.787 79.2388 724.803 78.4618C724.996 69.1258 728.04 60.2638 730.079 51.2558C731.903 43.1978 731.993 34.8618 733.833 26.8418C727.794 31.5288 721.802 36.2928 715.893 41.1668C713.082 59.0578 706.566 76.2228 701.821 93.6098Z" fill="#003483"/>
<path d="M1405.18 202.931C1401.64 194.713 1401.06 185.236 1396.69 177.466C1391.82 168.827 1383.05 163.599 1375.35 157.598C1367.65 151.597 1360.22 143.281 1360.35 133.266C1360.43 127.207 1363.32 121.093 1361.64 115.292C1360.55 111.516 1357.69 108.614 1354.87 105.982C1343.04 94.9466 1328.89 83.8576 1326.46 67.5096C1325.59 61.7006 1327.32 54.4296 1332.73 52.7706C1334.71 52.1656 1336.83 52.4456 1338.84 52.8726C1347.32 54.6666 1355.29 59.0166 1361.52 65.2616C1367.77 71.5156 1372.75 79.9146 1380.97 82.7696C1387.3 84.9706 1394.47 83.3846 1400.7 85.8906C1410.07 89.6596 1414.02 100.962 1416.85 110.996C1419.69 121.03 1423.54 132.34 1432.85 136.253C1436.6 137.83 1440.83 137.955 1444.49 139.75C1451.67 143.268 1454.82 152.252 1455.25 160.501C1455.69 168.75 1454.14 177.063 1455.16 185.256C1457.42 203.438 1471.44 217.105 1482.69 231.204C1484.17 233.057 1485.68 235.124 1485.77 237.532C1485.82 239.039 1485.3 240.516 1484.55 241.81C1479.99 249.755 1468.77 250.007 1460.52 246.566C1441.48 238.626 1413.86 223.083 1405.18 202.931Z" fill="#06D6A0"/>
<path d="M1350.5 81.702C1362.48 96.804 1374.85 111.36 1385.95 127.222C1396.94 142.941 1407.11 159.26 1416.49 176.075C1425.15 191.597 1433.6 207.149 1446.01 219.827C1457.66 231.72 1471.96 242.55 1486.69 249.899C1487.77 250.439 1488.5 248.676 1487.59 247.998C1473.13 237.185 1457.76 228.623 1445.15 215.203C1432.39 201.624 1424.12 184.668 1414.78 168.55C1405.94 153.279 1396.42 138.432 1386.25 124.088C1375.59 109.056 1364.5 93.78 1351.94 80.406C1351.08 79.5 1349.71 80.711 1350.5 81.702Z" fill="#003483"/>
<path d="M848.08 557.364C854.794 545.241 857.549 524.315 858.389 510.868C858.998 502.719 859.712 490.222 855.109 482.782C847.876 470.605 840.894 481.236 831.512 481.833C829.863 466.093 836.934 447.721 829.682 432.15C821.641 415.496 813.085 423.964 804.67 434.875C803.559 422.119 809.447 402.125 804.039 390.208C796.662 375.587 782.865 396.088 775.597 401.832C778.031 393.944 780.852 368.483 777.683 360.762C771.074 343.828 759.421 358.153 752.295 366.34C748.482 359.982 728.229 326.562 719.153 335.44C709.038 345.139 731.761 377.457 736.113 386.801C727.106 384.545 698.818 383.895 714.54 398.738C721.881 406.571 741.581 408.52 750.998 414.711C742.298 420.735 717.281 423.841 731.551 435.57C742.025 444.334 755.381 445.676 769.564 450.692C761.882 452.501 741.185 457.781 746.325 468.206C751.465 478.631 776.225 477.808 785.375 482.508C779.395 485.53 757.91 489.728 767.098 501.216C773.132 508.377 794.759 506.622 802.727 509.698C798.967 513.521 787.008 519.565 788.083 525.533C788.908 533.403 805.738 536.292 812.004 538.156C824.537 541.885 834.85 544.812 844.679 554.938" fill="#06D6A0"/>
<path d="M734.759 359.799C752.122 385.17 767.441 412.177 783.1 438.699C800.845 468.755 818.339 498.972 836.097 529.021C840.926 537.193 845.48 545.825 851.038 553.5C851.816 554.574 850.218 555.84 849.439 554.764C844.809 548.371 840.982 541.225 836.948 534.425C829.071 521.147 821.287 507.81 813.49 494.482C794.81 462.552 776.189 430.579 757.03 398.958C749.295 386.191 741.575 373.362 733.16 361.064C732.411 359.969 734.007 358.701 734.759 359.799Z" fill="#003483"/>
<path d="M762.127 372.047C761.343 382.228 758.657 392.346 760.556 402.565C760.7 403.338 759.833 403.96 759.175 403.656C751.749 400.229 744.985 395.507 737.82 391.56C736.685 390.935 737.446 388.998 738.588 389.627C745.754 393.574 752.518 398.297 759.944 401.723C759.483 402.087 759.023 402.451 758.562 402.815C756.631 392.418 759.34 382.12 760.137 371.762C760.24 370.418 762.229 370.708 762.127 372.047Z" fill="#003483"/>
<path d="M785.494 403.003C783.73 413.945 781.346 424.919 781.417 436.069C781.422 436.884 780.802 437.413 780.036 437.16C771.033 434.194 761.917 431.393 753.477 426.906C752.332 426.297 753.094 424.361 754.246 424.974C762.685 429.462 771.802 432.262 780.805 435.228C780.344 435.592 779.884 435.956 779.423 436.32C779.351 424.975 781.71 413.853 783.505 402.719C783.719 401.392 785.709 401.672 785.494 403.003Z" fill="#003483"/>
<path d="M810.206 441.42C808.077 453.064 806.21 464.758 804.05 476.396C803.94 476.99 803.272 477.563 802.671 477.22C795.655 473.216 788.023 470.507 781.27 465.984C780.182 465.255 781.41 463.599 782.49 464.322C789.091 468.744 796.578 471.372 803.439 475.288C802.98 475.563 802.52 475.837 802.061 476.112C804.22 464.474 806.088 452.78 808.216 441.136C808.458 439.816 810.448 440.094 810.206 441.42Z" fill="#003483"/>
<path d="M825.415 474.278C824.063 484.318 821.913 494.233 821.144 504.355C821.097 504.969 820.316 505.505 819.765 505.179C811.911 500.543 803.307 497.564 795.284 493.283C794.139 492.672 794.902 490.736 796.053 491.35C804.075 495.631 812.68 498.609 820.534 503.245C820.074 503.52 819.614 503.795 819.155 504.069C819.924 493.947 822.075 484.033 823.426 473.992C823.605 472.66 825.595 472.943 825.415 474.278Z" fill="#003483"/>
<path d="M1294.33 478.562C1300.1 471.059 1308.46 465.882 1313.41 457.772C1318.92 448.755 1319.42 437.529 1321.14 426.993C1322.87 416.457 1326.83 405.061 1336.03 400.318C1341.59 397.448 1348.57 397.328 1353.04 392.844C1355.95 389.925 1357.21 385.689 1358.24 381.618C1362.54 364.544 1365.76 345.147 1379.49 334.787C1384.36 331.106 1391.83 329.27 1395.98 333.818C1397.49 335.478 1398.26 337.712 1398.86 339.916C1401.35 349.175 1401.26 359.171 1398.6 368.379C1395.94 377.601 1390.7 386.619 1392.1 396.138C1393.18 403.476 1398.11 409.794 1398.86 417.176C1399.98 428.275 1391.6 437.688 1383.83 445.374C1376.06 453.06 1367.62 462.372 1368.58 473.488C1368.97 477.969 1370.92 482.214 1371.06 486.71C1371.35 495.521 1364.69 503.007 1357.38 507.453C1350.07 511.899 1341.74 514.414 1334.77 519.41C1319.29 530.497 1313.65 551.008 1306.27 569C1305.3 571.365 1304.15 573.865 1302 575.124C1300.65 575.912 1299.05 576.112 1297.51 576.006C1288.04 575.355 1282.36 564.382 1281.48 554.543C1279.45 531.843 1280.18 496.959 1294.33 478.562Z" fill="#06D6A0"/>
<path d="M1378.24 365.474C1370.31 384.675 1363.06 403.999 1353.99 422.693C1345.01 441.219 1335.09 459.226 1324.32 476.687C1314.38 492.806 1304.31 508.728 1298.8 527.181C1293.62 544.491 1290.71 563.912 1291.17 582.056C1291.21 583.389 1293.17 583.25 1293.35 582.022C1296.17 562.452 1296.49 543.08 1302.59 524.077C1308.76 504.849 1320.19 488.41 1330.35 471.335C1339.97 455.158 1348.87 438.508 1357 421.467C1365.52 403.608 1374.05 385.204 1380.12 366.266C1380.54 364.983 1378.76 364.213 1378.24 365.474Z" fill="#003483"/>
</g>
<path d="M76.4066 234.572C76.4066 227.415 77.9551 221.049 81.052 215.474C84.1489 209.831 88.4502 205.461 93.9559 202.364C99.5303 199.198 105.827 197.615 112.847 197.615C121.45 197.615 128.814 199.886 134.939 204.428C141.064 208.971 145.158 215.164 147.223 223.01H127.816C126.37 219.982 124.306 217.676 121.622 216.094C119.007 214.511 116.013 213.719 112.641 213.719C107.204 213.719 102.799 215.612 99.4271 219.397C96.0549 223.182 94.3688 228.24 94.3688 234.572C94.3688 240.903 96.0549 245.962 99.4271 249.747C102.799 253.532 107.204 255.425 112.641 255.425C116.013 255.425 119.007 254.633 121.622 253.05C124.306 251.467 126.37 249.162 127.816 246.134H147.223C145.158 253.979 141.064 260.173 134.939 264.715C128.814 269.189 121.45 271.425 112.847 271.425C105.827 271.425 99.5303 269.877 93.9559 266.78C88.4502 263.614 84.1489 259.244 81.052 253.67C77.9551 248.095 76.4066 241.729 76.4066 234.572ZM203.145 258.109H176.099L171.763 270.909H153.285L179.505 198.441H199.945L226.166 270.909H207.481L203.145 258.109ZM198.603 244.482L189.622 217.952L180.744 244.482H198.603ZM316.214 198.441V270.909H298.562V227.449L282.355 270.909H268.109L251.798 227.346V270.909H234.146V198.441H254.999L275.335 248.611L295.465 198.441H316.214ZM372.782 233.746C376.98 234.641 380.352 236.74 382.898 240.043C385.445 243.278 386.718 246.994 386.718 251.192C386.718 257.248 384.584 262.066 380.318 265.644C376.12 269.154 370.235 270.909 362.665 270.909H328.909V198.441H361.53C368.893 198.441 374.64 200.127 378.769 203.499C382.967 206.872 385.066 211.448 385.066 217.229C385.066 221.496 383.931 225.04 381.66 227.862C379.457 230.684 376.498 232.645 372.782 233.746ZM346.561 227.759H358.123C361.013 227.759 363.216 227.139 364.73 225.901C366.313 224.593 367.104 222.7 367.104 220.223C367.104 217.745 366.313 215.853 364.73 214.545C363.216 213.238 361.013 212.584 358.123 212.584H346.561V227.759ZM359.568 256.663C362.527 256.663 364.799 256.01 366.381 254.702C368.033 253.326 368.859 251.364 368.859 248.818C368.859 246.271 367.999 244.276 366.278 242.83C364.626 241.385 362.321 240.663 359.362 240.663H346.561V256.663H359.568ZM414.609 198.441V270.909H396.956V198.441H414.609ZM461.674 271.632C454.861 271.632 448.598 270.049 442.886 266.883C437.243 263.717 432.735 259.313 429.363 253.67C426.059 247.958 424.408 241.557 424.408 234.469C424.408 227.38 426.059 221.014 429.363 215.371C432.735 209.728 437.243 205.323 442.886 202.157C448.598 198.992 454.861 197.409 461.674 197.409C468.487 197.409 474.716 198.992 480.359 202.157C486.071 205.323 490.544 209.728 493.779 215.371C497.082 221.014 498.734 227.38 498.734 234.469C498.734 241.557 497.082 247.958 493.779 253.67C490.475 259.313 486.002 263.717 480.359 266.883C474.716 270.049 468.487 271.632 461.674 271.632ZM461.674 255.528C467.455 255.528 472.066 253.601 475.507 249.747C479.017 245.893 480.772 240.8 480.772 234.469C480.772 228.068 479.017 222.976 475.507 219.19C472.066 215.337 467.455 213.41 461.674 213.41C455.824 213.41 451.144 215.302 447.635 219.087C444.194 222.872 442.473 228 442.473 234.469C442.473 240.869 444.194 245.996 447.635 249.85C451.144 253.635 455.824 255.528 461.674 255.528Z" fill="#073B4C"/>
<path d="M113.222 116.857V159H102.956V141.651H86.9875V159H76.722V116.857H86.9875V133.366H102.956V116.857H113.222ZM146.867 151.556H131.138L128.617 159H117.871L133.119 116.857H145.006L160.254 159H149.388L146.867 151.556ZM144.225 143.632L139.002 128.203L133.84 143.632H144.225ZM175.82 150.595H193.95V159H164.174V151.196L182.184 125.262H164.174V116.857H193.95V124.661L175.82 150.595ZM245.495 130.425C245.495 132.866 244.935 135.107 243.814 137.148C242.694 139.149 240.973 140.77 238.651 142.011C236.33 143.252 233.449 143.872 230.007 143.872H223.643V159H213.378V116.857H230.007C233.369 116.857 236.21 117.438 238.531 118.598C240.853 119.759 242.594 121.36 243.754 123.401C244.915 125.442 245.495 127.783 245.495 130.425ZM229.226 135.707C231.187 135.707 232.648 135.247 233.609 134.327C234.569 133.406 235.049 132.105 235.049 130.425C235.049 128.744 234.569 127.443 233.609 126.522C232.648 125.602 231.187 125.142 229.226 125.142H223.643V135.707H229.226ZM277.074 151.556H261.345L258.824 159H248.078L263.326 116.857H275.213L290.461 159H279.595L277.074 151.556ZM274.432 143.632L269.209 128.203L264.047 143.632H274.432ZM316.593 159L307.828 143.091H305.367V159H295.102V116.857H312.331C315.653 116.857 318.474 117.438 320.795 118.598C323.157 119.759 324.918 121.36 326.078 123.401C327.239 125.402 327.819 127.643 327.819 130.124C327.819 132.926 327.019 135.427 325.418 137.628C323.857 139.83 321.536 141.39 318.454 142.311L328.179 159H316.593ZM305.367 135.827H311.731C313.612 135.827 315.012 135.367 315.933 134.447C316.893 133.526 317.374 132.226 317.374 130.545C317.374 128.944 316.893 127.683 315.933 126.763C315.012 125.842 313.612 125.382 311.731 125.382H305.367V135.827ZM364.58 116.857V125.082H353.414V159H343.148V125.082H331.982V116.857H364.58ZM379.997 125.082V133.606H393.745V141.531H379.997V150.776H395.546V159H369.732V116.857H395.546V125.082H379.997ZM430.72 116.857C435.163 116.857 439.045 117.738 442.367 119.499C445.688 121.26 448.25 123.741 450.051 126.943C451.892 130.104 452.812 133.766 452.812 137.929C452.812 142.051 451.892 145.713 450.051 148.915C448.25 152.116 445.668 154.598 442.307 156.359C438.985 158.12 435.123 159 430.72 159H414.932V116.857H430.72ZM430.06 150.115C433.942 150.115 436.964 149.055 439.125 146.933C441.286 144.812 442.367 141.811 442.367 137.929C442.367 134.047 441.286 131.025 439.125 128.864C436.964 126.703 433.942 125.622 430.06 125.622H425.197V150.115H430.06ZM468.815 125.082V133.606H482.562V141.531H468.815V150.776H484.363V159H458.549V116.857H484.363V125.082H468.815ZM501.293 151.076H514.74V159H491.028V116.857H501.293V151.076Z" fill="#118AB2"/>
<path d="M73.726 62.256C73.726 60.7307 74.056 59.374 74.716 58.186C75.376 56.9833 76.2927 56.052 77.466 55.392C78.654 54.7173 79.996 54.38 81.492 54.38C83.3253 54.38 84.8947 54.864 86.2 55.832C87.5053 56.8 88.378 58.12 88.818 59.792H84.682C84.374 59.1467 83.934 58.6553 83.362 58.318C82.8047 57.9807 82.1667 57.812 81.448 57.812C80.2893 57.812 79.3507 58.2153 78.632 59.022C77.9133 59.8287 77.554 60.9067 77.554 62.256C77.554 63.6053 77.9133 64.6833 78.632 65.49C79.3507 66.2967 80.2893 66.7 81.448 66.7C82.1667 66.7 82.8047 66.5313 83.362 66.194C83.934 65.8567 84.374 65.3653 84.682 64.72H88.818C88.378 66.392 87.5053 67.712 86.2 68.68C84.8947 69.6333 83.3253 70.11 81.492 70.11C79.996 70.11 78.654 69.78 77.466 69.12C76.2927 68.4453 75.376 67.514 74.716 66.326C74.056 65.138 73.726 63.7813 73.726 62.256ZM98.4258 70.154C96.9738 70.154 95.6391 69.8167 94.4218 69.142C93.2191 68.4673 92.2585 67.5287 91.5398 66.326C90.8358 65.1087 90.4838 63.7447 90.4838 62.234C90.4838 60.7233 90.8358 59.3667 91.5398 58.164C92.2585 56.9613 93.2191 56.0227 94.4218 55.348C95.6391 54.6733 96.9738 54.336 98.4258 54.336C99.8778 54.336 101.205 54.6733 102.408 55.348C103.625 56.0227 104.578 56.9613 105.268 58.164C105.972 59.3667 106.324 60.7233 106.324 62.234C106.324 63.7447 105.972 65.1087 105.268 66.326C104.564 67.5287 103.61 68.4673 102.408 69.142C101.205 69.8167 99.8778 70.154 98.4258 70.154ZM98.4258 66.722C99.6578 66.722 100.64 66.3113 101.374 65.49C102.122 64.6687 102.496 63.5833 102.496 62.234C102.496 60.87 102.122 59.7847 101.374 58.978C100.64 58.1567 99.6578 57.746 98.4258 57.746C97.1791 57.746 96.1818 58.1493 95.4338 58.956C94.7005 59.7627 94.3338 60.8553 94.3338 62.234C94.3338 63.598 94.7005 64.6907 95.4338 65.512C96.1818 66.3187 97.1791 66.722 98.4258 66.722ZM112.179 67.096H117.107V70H108.417V54.556H112.179V67.096ZM128.515 67.272H122.751L121.827 70H117.889L123.477 54.556H127.833L133.421 70H129.439L128.515 67.272ZM127.547 64.368L125.633 58.714L123.741 64.368H127.547ZM144.472 62.08C145.366 62.2707 146.085 62.718 146.628 63.422C147.17 64.1113 147.442 64.9033 147.442 65.798C147.442 67.0887 146.987 68.1153 146.078 68.878C145.183 69.626 143.929 70 142.316 70H135.122V54.556H142.074C143.643 54.556 144.868 54.9153 145.748 55.634C146.642 56.3527 147.09 57.328 147.09 58.56C147.09 59.4693 146.848 60.2247 146.364 60.826C145.894 61.4273 145.264 61.8453 144.472 62.08ZM138.884 60.804H141.348C141.964 60.804 142.433 60.672 142.756 60.408C143.093 60.1293 143.262 59.726 143.262 59.198C143.262 58.67 143.093 58.2667 142.756 57.988C142.433 57.7093 141.964 57.57 141.348 57.57H138.884V60.804ZM141.656 66.964C142.286 66.964 142.77 66.8247 143.108 66.546C143.46 66.2527 143.636 65.8347 143.636 65.292C143.636 64.7493 143.452 64.324 143.086 64.016C142.734 63.708 142.242 63.554 141.612 63.554H138.884V66.964H141.656ZM156.928 70.154C155.476 70.154 154.141 69.8167 152.924 69.142C151.721 68.4673 150.76 67.5287 150.042 66.326C149.338 65.1087 148.986 63.7447 148.986 62.234C148.986 60.7233 149.338 59.3667 150.042 58.164C150.76 56.9613 151.721 56.0227 152.924 55.348C154.141 54.6733 155.476 54.336 156.928 54.336C158.38 54.336 159.707 54.6733 160.91 55.348C162.127 56.0227 163.08 56.9613 163.77 58.164C164.474 59.3667 164.826 60.7233 164.826 62.234C164.826 63.7447 164.474 65.1087 163.77 66.326C163.066 67.5287 162.112 68.4673 160.91 69.142C159.707 69.8167 158.38 70.154 156.928 70.154ZM156.928 66.722C158.16 66.722 159.142 66.3113 159.876 65.49C160.624 64.6687 160.998 63.5833 160.998 62.234C160.998 60.87 160.624 59.7847 159.876 58.978C159.142 58.1567 158.16 57.746 156.928 57.746C155.681 57.746 154.684 58.1493 153.936 58.956C153.202 59.7627 152.836 60.8553 152.836 62.234C152.836 63.598 153.202 64.6907 153.936 65.512C154.684 66.3187 155.681 66.722 156.928 66.722ZM174.795 70L171.583 64.17H170.681V70H166.919V54.556H173.233C174.45 54.556 175.484 54.7687 176.335 55.194C177.2 55.6193 177.845 56.206 178.271 56.954C178.696 57.6873 178.909 58.5087 178.909 59.418C178.909 60.4447 178.615 61.3613 178.029 62.168C177.457 62.9747 176.606 63.5467 175.477 63.884L179.041 70H174.795ZM170.681 61.508H173.013C173.702 61.508 174.215 61.3393 174.553 61.002C174.905 60.6647 175.081 60.188 175.081 59.572C175.081 58.9853 174.905 58.5233 174.553 58.186C174.215 57.8487 173.702 57.68 173.013 57.68H170.681V61.508ZM190.884 67.272H185.12L184.196 70H180.258L185.846 54.556H190.202L195.79 70H191.808L190.884 67.272ZM189.916 64.368L188.002 58.714L186.11 64.368H189.916ZM201.515 62.256C201.515 60.7307 201.845 59.374 202.505 58.186C203.165 56.9833 204.082 56.052 205.255 55.392C206.443 54.7173 207.785 54.38 209.281 54.38C211.114 54.38 212.684 54.864 213.989 55.832C215.294 56.8 216.167 58.12 216.607 59.792H212.471C212.163 59.1467 211.723 58.6553 211.151 58.318C210.594 57.9807 209.956 57.812 209.237 57.812C208.078 57.812 207.14 58.2153 206.421 59.022C205.702 59.8287 205.343 60.9067 205.343 62.256C205.343 63.6053 205.702 64.6833 206.421 65.49C207.14 66.2967 208.078 66.7 209.237 66.7C209.956 66.7 210.594 66.5313 211.151 66.194C211.723 65.8567 212.163 65.3653 212.471 64.72H216.607C216.167 66.392 215.294 67.712 213.989 68.68C212.684 69.6333 211.114 70.11 209.281 70.11C207.785 70.11 206.443 69.78 205.255 69.12C204.082 68.4453 203.165 67.514 202.505 66.326C201.845 65.138 201.515 63.7813 201.515 62.256ZM226.215 70.154C224.763 70.154 223.428 69.8167 222.211 69.142C221.008 68.4673 220.048 67.5287 219.329 66.326C218.625 65.1087 218.273 63.7447 218.273 62.234C218.273 60.7233 218.625 59.3667 219.329 58.164C220.048 56.9613 221.008 56.0227 222.211 55.348C223.428 54.6733 224.763 54.336 226.215 54.336C227.667 54.336 228.994 54.6733 230.197 55.348C231.414 56.0227 232.368 56.9613 233.057 58.164C233.761 59.3667 234.113 60.7233 234.113 62.234C234.113 63.7447 233.761 65.1087 233.057 66.326C232.353 67.5287 231.4 68.4673 230.197 69.142C228.994 69.8167 227.667 70.154 226.215 70.154ZM226.215 66.722C227.447 66.722 228.43 66.3113 229.163 65.49C229.911 64.6687 230.285 63.5833 230.285 62.234C230.285 60.87 229.911 59.7847 229.163 58.978C228.43 58.1567 227.447 57.746 226.215 57.746C224.968 57.746 223.971 58.1493 223.223 58.956C222.49 59.7627 222.123 60.8553 222.123 62.234C222.123 63.598 222.49 64.6907 223.223 65.512C223.971 66.3187 224.968 66.722 226.215 66.722ZM250.022 70H246.26L239.968 60.474V70H236.206V54.556H239.968L246.26 64.126V54.556H250.022V70ZM261.173 57.57V60.694H266.211V63.598H261.173V66.986H266.871V70H257.411V54.556H266.871V57.57H261.173ZM274.901 70.154C273.772 70.154 272.76 69.9707 271.865 69.604C270.971 69.2373 270.252 68.6947 269.709 67.976C269.181 67.2573 268.903 66.392 268.873 65.38H272.877C272.936 65.952 273.134 66.392 273.471 66.7C273.809 66.9933 274.249 67.14 274.791 67.14C275.349 67.14 275.789 67.0153 276.111 66.766C276.434 66.502 276.595 66.1427 276.595 65.688C276.595 65.3067 276.463 64.9913 276.199 64.742C275.95 64.4927 275.635 64.2873 275.253 64.126C274.887 63.9647 274.359 63.7813 273.669 63.576C272.672 63.268 271.858 62.96 271.227 62.652C270.597 62.344 270.054 61.8893 269.599 61.288C269.145 60.6867 268.917 59.902 268.917 58.934C268.917 57.4967 269.438 56.3747 270.479 55.568C271.521 54.7467 272.877 54.336 274.549 54.336C276.251 54.336 277.622 54.7467 278.663 55.568C279.705 56.3747 280.262 57.504 280.335 58.956H276.265C276.236 58.4573 276.053 58.0687 275.715 57.79C275.378 57.4967 274.945 57.35 274.417 57.35C273.963 57.35 273.596 57.4747 273.317 57.724C273.039 57.9587 272.899 58.3033 272.899 58.758C272.899 59.2567 273.134 59.6453 273.603 59.924C274.073 60.2027 274.806 60.5033 275.803 60.826C276.801 61.1633 277.607 61.486 278.223 61.794C278.854 62.102 279.397 62.5493 279.851 63.136C280.306 63.7227 280.533 64.478 280.533 65.402C280.533 66.282 280.306 67.0813 279.851 67.8C279.411 68.5187 278.766 69.0907 277.915 69.516C277.065 69.9413 276.06 70.154 274.901 70.154ZM293.958 54.556V57.57H289.866V70H286.104V57.57H282.012V54.556H293.958ZM305.46 67.272H299.696L298.772 70H294.834L300.422 54.556H304.778L310.366 70H306.384L305.46 67.272ZM304.492 64.368L302.578 58.714L300.686 64.368H304.492ZM330.545 70H326.783L320.491 60.474V70H316.729V54.556H320.491L326.783 64.126V54.556H330.545V70ZM340.576 70.154C339.124 70.154 337.79 69.8167 336.572 69.142C335.37 68.4673 334.409 67.5287 333.69 66.326C332.986 65.1087 332.634 63.7447 332.634 62.234C332.634 60.7233 332.986 59.3667 333.69 58.164C334.409 56.9613 335.37 56.0227 336.572 55.348C337.79 54.6733 339.124 54.336 340.576 54.336C342.028 54.336 343.356 54.6733 344.558 55.348C345.776 56.0227 346.729 56.9613 347.418 58.164C348.122 59.3667 348.474 60.7233 348.474 62.234C348.474 63.7447 348.122 65.1087 347.418 66.326C346.714 67.5287 345.761 68.4673 344.558 69.142C343.356 69.8167 342.028 70.154 340.576 70.154ZM340.576 66.722C341.808 66.722 342.791 66.3113 343.524 65.49C344.272 64.6687 344.646 63.5833 344.646 62.234C344.646 60.87 344.272 59.7847 343.524 58.978C342.791 58.1567 341.808 57.746 340.576 57.746C339.33 57.746 338.332 58.1493 337.584 58.956C336.851 59.7627 336.484 60.8553 336.484 62.234C336.484 63.598 336.851 64.6907 337.584 65.512C338.332 66.3187 339.33 66.722 340.576 66.722ZM359.917 62.08C360.812 62.2707 361.53 62.718 362.073 63.422C362.616 64.1113 362.887 64.9033 362.887 65.798C362.887 67.0887 362.432 68.1153 361.523 68.878C360.628 69.626 359.374 70 357.761 70H350.567V54.556H357.519C359.088 54.556 360.313 54.9153 361.193 55.634C362.088 56.3527 362.535 57.328 362.535 58.56C362.535 59.4693 362.293 60.2247 361.809 60.826C361.34 61.4273 360.709 61.8453 359.917 62.08ZM354.329 60.804H356.793C357.409 60.804 357.878 60.672 358.201 60.408C358.538 60.1293 358.707 59.726 358.707 59.198C358.707 58.67 358.538 58.2667 358.201 57.988C357.878 57.7093 357.409 57.57 356.793 57.57H354.329V60.804ZM357.101 66.964C357.732 66.964 358.216 66.8247 358.553 66.546C358.905 66.2527 359.081 65.8347 359.081 65.292C359.081 64.7493 358.898 64.324 358.531 64.016C358.179 63.708 357.688 63.554 357.057 63.554H354.329V66.964H357.101ZM368.831 67.096H373.759V70H365.069V54.556H368.831V67.096ZM379.315 57.57V60.694H384.353V63.598H379.315V66.986H385.013V70H375.553V54.556H385.013V57.57H379.315ZM391.48 62.256C391.48 60.7307 391.81 59.374 392.47 58.186C393.13 56.9833 394.047 56.052 395.22 55.392C396.408 54.7173 397.75 54.38 399.246 54.38C401.079 54.38 402.649 54.864 403.954 55.832C405.259 56.8 406.132 58.12 406.572 59.792H402.436C402.128 59.1467 401.688 58.6553 401.116 58.318C400.559 57.9807 399.921 57.812 399.202 57.812C398.043 57.812 397.105 58.2153 396.386 59.022C395.667 59.8287 395.308 60.9067 395.308 62.256C395.308 63.6053 395.667 64.6833 396.386 65.49C397.105 66.2967 398.043 66.7 399.202 66.7C399.921 66.7 400.559 66.5313 401.116 66.194C401.688 65.8567 402.128 65.3653 402.436 64.72H406.572C406.132 66.392 405.259 67.712 403.954 68.68C402.649 69.6333 401.079 70.11 399.246 70.11C397.75 70.11 396.408 69.78 395.22 69.12C394.047 68.4453 393.13 67.514 392.47 66.326C391.81 65.138 391.48 63.7813 391.48 62.256ZM418.49 67.272H412.726L411.802 70H407.864L413.452 54.556H417.808L423.396 70H419.414L418.49 67.272ZM417.522 64.368L415.608 58.714L413.716 64.368H417.522ZM428.792 54.556V63.796C428.792 64.72 429.02 65.4313 429.474 65.93C429.929 66.4287 430.596 66.678 431.476 66.678C432.356 66.678 433.031 66.4287 433.5 65.93C433.97 65.4313 434.204 64.72 434.204 63.796V54.556H437.966V63.774C437.966 65.1527 437.673 66.3187 437.086 67.272C436.5 68.2253 435.708 68.944 434.71 69.428C433.728 69.912 432.628 70.154 431.41 70.154C430.193 70.154 429.1 69.9193 428.132 69.45C427.179 68.966 426.424 68.2473 425.866 67.294C425.309 66.326 425.03 65.1527 425.03 63.774V54.556H428.792ZM446.196 70.154C445.067 70.154 444.055 69.9707 443.16 69.604C442.265 69.2373 441.547 68.6947 441.004 67.976C440.476 67.2573 440.197 66.392 440.168 65.38H444.172C444.231 65.952 444.429 66.392 444.766 66.7C445.103 66.9933 445.543 67.14 446.086 67.14C446.643 67.14 447.083 67.0153 447.406 66.766C447.729 66.502 447.89 66.1427 447.89 65.688C447.89 65.3067 447.758 64.9913 447.494 64.742C447.245 64.4927 446.929 64.2873 446.548 64.126C446.181 63.9647 445.653 63.7813 444.964 63.576C443.967 63.268 443.153 62.96 442.522 62.652C441.891 62.344 441.349 61.8893 440.894 61.288C440.439 60.6867 440.212 59.902 440.212 58.934C440.212 57.4967 440.733 56.3747 441.774 55.568C442.815 54.7467 444.172 54.336 445.844 54.336C447.545 54.336 448.917 54.7467 449.958 55.568C450.999 56.3747 451.557 57.504 451.63 58.956H447.56C447.531 58.4573 447.347 58.0687 447.01 57.79C446.673 57.4967 446.24 57.35 445.712 57.35C445.257 57.35 444.891 57.4747 444.612 57.724C444.333 57.9587 444.194 58.3033 444.194 58.758C444.194 59.2567 444.429 59.6453 444.898 59.924C445.367 60.2027 446.101 60.5033 447.098 60.826C448.095 61.1633 448.902 61.486 449.518 61.794C450.149 62.102 450.691 62.5493 451.146 63.136C451.601 63.7227 451.828 64.478 451.828 65.402C451.828 66.282 451.601 67.0813 451.146 67.8C450.706 68.5187 450.061 69.0907 449.21 69.516C448.359 69.9413 447.355 70.154 446.196 70.154ZM463.757 67.272H457.993L457.069 70H453.131L458.719 54.556H463.075L468.663 70H464.681L463.757 67.272ZM462.789 64.368L460.875 58.714L458.983 64.368H462.789Z" fill="#073B4C"/>
<g filter="url(#filter0_d_430_2402)">
<rect x="335" y="323" width="185" height="116" rx="30" fill="#06D6A0"/>
<path d="M404.108 347.85V369H398.228V360.51H391.058V369H385.178V347.85H391.058V355.8H398.228V347.85H404.108ZM406.513 360.57C406.513 358.83 406.823 357.31 407.443 356.01C408.083 354.71 408.943 353.71 410.023 353.01C411.123 352.31 412.343 351.96 413.683 351.96C414.843 351.96 415.843 352.19 416.683 352.65C417.523 353.11 418.173 353.73 418.633 354.51V352.17H424.513V369H418.633V366.66C418.173 367.44 417.513 368.06 416.653 368.52C415.813 368.98 414.823 369.21 413.683 369.21C412.343 369.21 411.123 368.86 410.023 368.16C408.943 367.46 408.083 366.46 407.443 365.16C406.823 363.84 406.513 362.31 406.513 360.57ZM418.633 360.57C418.633 359.49 418.333 358.64 417.733 358.02C417.153 357.4 416.433 357.09 415.573 357.09C414.693 357.09 413.963 357.4 413.383 358.02C412.803 358.62 412.513 359.47 412.513 360.57C412.513 361.65 412.803 362.51 413.383 363.15C413.963 363.77 414.693 364.08 415.573 364.08C416.433 364.08 417.153 363.77 417.733 363.15C418.333 362.53 418.633 361.67 418.633 360.57ZM433.444 364.11H440.614V369H426.964V364.35L433.654 357.06H427.024V352.17H440.374V356.82L433.444 364.11ZM452.999 363.99V369H450.449C446.149 369 443.999 366.87 443.999 362.61V357.06H441.929V352.17H443.999V348.09H449.909V352.17H452.969V357.06H449.909V362.7C449.909 363.16 450.009 363.49 450.209 363.69C450.429 363.89 450.789 363.99 451.289 363.99H452.999ZM471.776 360.39C471.776 360.85 471.746 361.31 471.686 361.77H460.556C460.616 362.69 460.866 363.38 461.306 363.84C461.766 364.28 462.346 364.5 463.046 364.5C464.026 364.5 464.726 364.06 465.146 363.18H471.416C471.156 364.34 470.646 365.38 469.886 366.3C469.146 367.2 468.206 367.91 467.066 368.43C465.926 368.95 464.666 369.21 463.286 369.21C461.626 369.21 460.146 368.86 458.846 368.16C457.566 367.46 456.556 366.46 455.816 365.16C455.096 363.86 454.736 362.33 454.736 360.57C454.736 358.81 455.096 357.29 455.816 356.01C456.536 354.71 457.536 353.71 458.816 353.01C460.116 352.31 461.606 351.96 463.286 351.96C464.946 351.96 466.416 352.3 467.696 352.98C468.976 353.66 469.976 354.64 470.696 355.92C471.416 357.18 471.776 358.67 471.776 360.39ZM465.776 358.92C465.776 358.2 465.536 357.64 465.056 357.24C464.576 356.82 463.976 356.61 463.256 356.61C462.536 356.61 461.946 356.81 461.486 357.21C461.026 357.59 460.726 358.16 460.586 358.92H465.776ZM395.56 414.21C393.1 414.21 391.08 413.63 389.5 412.47C387.92 411.29 387.07 409.61 386.95 407.43H393.22C393.28 408.17 393.5 408.71 393.88 409.05C394.26 409.39 394.75 409.56 395.35 409.56C395.89 409.56 396.33 409.43 396.67 409.17C397.03 408.89 397.21 408.51 397.21 408.03C397.21 407.41 396.92 406.93 396.34 406.59C395.76 406.25 394.82 405.87 393.52 405.45C392.14 404.99 391.02 404.55 390.16 404.13C389.32 403.69 388.58 403.06 387.94 402.24C387.32 401.4 387.01 400.31 387.01 398.97C387.01 397.61 387.35 396.45 388.03 395.49C388.71 394.51 389.65 393.77 390.85 393.27C392.05 392.77 393.41 392.52 394.93 392.52C397.39 392.52 399.35 393.1 400.81 394.26C402.29 395.4 403.08 397.01 403.18 399.09H396.79C396.77 398.45 396.57 397.97 396.19 397.65C395.83 397.33 395.36 397.17 394.78 397.17C394.34 397.17 393.98 397.3 393.7 397.56C393.42 397.82 393.28 398.19 393.28 398.67C393.28 399.07 393.43 399.42 393.73 399.72C394.05 400 394.44 400.25 394.9 400.47C395.36 400.67 396.04 400.93 396.94 401.25C398.28 401.71 399.38 402.17 400.24 402.63C401.12 403.07 401.87 403.7 402.49 404.52C403.13 405.32 403.45 406.34 403.45 407.58C403.45 408.84 403.13 409.97 402.49 410.97C401.87 411.97 400.96 412.76 399.76 413.34C398.58 413.92 397.18 414.21 395.56 414.21ZM414.014 414.21C412.334 414.21 410.824 413.86 409.484 413.16C408.164 412.46 407.124 411.46 406.364 410.16C405.604 408.86 405.224 407.33 405.224 405.57C405.224 403.83 405.604 402.31 406.364 401.01C407.144 399.71 408.194 398.71 409.514 398.01C410.854 397.31 412.364 396.96 414.044 396.96C415.724 396.96 417.224 397.31 418.544 398.01C419.884 398.71 420.934 399.71 421.694 401.01C422.474 402.31 422.864 403.83 422.864 405.57C422.864 407.31 422.474 408.84 421.694 410.16C420.934 411.46 419.884 412.46 418.544 413.16C417.204 413.86 415.694 414.21 414.014 414.21ZM414.014 409.11C414.834 409.11 415.514 408.81 416.054 408.21C416.614 407.59 416.894 406.71 416.894 405.57C416.894 404.43 416.614 403.56 416.054 402.96C415.514 402.36 414.844 402.06 414.044 402.06C413.244 402.06 412.574 402.36 412.034 402.96C411.494 403.56 411.224 404.43 411.224 405.57C411.224 406.73 411.484 407.61 412.004 408.21C412.524 408.81 413.194 409.11 414.014 409.11ZM424.296 405.57C424.296 403.83 424.656 402.31 425.376 401.01C426.096 399.71 427.096 398.71 428.376 398.01C429.676 397.31 431.156 396.96 432.816 396.96C434.956 396.96 436.756 397.55 438.216 398.73C439.676 399.89 440.616 401.52 441.036 403.62H434.796C434.436 402.52 433.736 401.97 432.696 401.97C431.956 401.97 431.366 402.28 430.926 402.9C430.506 403.5 430.296 404.39 430.296 405.57C430.296 406.75 430.506 407.65 430.926 408.27C431.366 408.89 431.956 409.2 432.696 409.2C433.756 409.2 434.456 408.65 434.796 407.55H441.036C440.616 409.63 439.676 411.26 438.216 412.44C436.756 413.62 434.956 414.21 432.816 414.21C431.156 414.21 429.676 413.86 428.376 413.16C427.096 412.46 426.096 411.46 425.376 410.16C424.656 408.86 424.296 407.33 424.296 405.57ZM446.449 395.61C445.409 395.61 444.569 395.33 443.929 394.77C443.309 394.19 442.999 393.47 442.999 392.61C442.999 391.73 443.309 391 443.929 390.42C444.569 389.84 445.409 389.55 446.449 389.55C447.469 389.55 448.289 389.84 448.909 390.42C449.549 391 449.869 391.73 449.869 392.61C449.869 393.47 449.549 394.19 448.909 394.77C448.289 395.33 447.469 395.61 446.449 395.61ZM449.359 397.17V414H443.479V397.17H449.359ZM460.537 414.21C458.857 414.21 457.347 413.86 456.007 413.16C454.687 412.46 453.647 411.46 452.887 410.16C452.127 408.86 451.747 407.33 451.747 405.57C451.747 403.83 452.127 402.31 452.887 401.01C453.667 399.71 454.717 398.71 456.037 398.01C457.377 397.31 458.887 396.96 460.567 396.96C462.247 396.96 463.747 397.31 465.067 398.01C466.407 398.71 467.457 399.71 468.217 401.01C468.997 402.31 469.387 403.83 469.387 405.57C469.387 407.31 468.997 408.84 468.217 410.16C467.457 411.46 466.407 412.46 465.067 413.16C463.727 413.86 462.217 414.21 460.537 414.21ZM460.537 409.11C461.357 409.11 462.037 408.81 462.577 408.21C463.137 407.59 463.417 406.71 463.417 405.57C463.417 404.43 463.137 403.56 462.577 402.96C462.037 402.36 461.367 402.06 460.567 402.06C459.767 402.06 459.097 402.36 458.557 402.96C458.017 403.56 457.747 404.43 457.747 405.57C457.747 406.73 458.007 407.61 458.527 408.21C459.047 408.81 459.717 409.11 460.537 409.11Z" fill="#073B4C"/>
</g>
<g filter="url(#filter1_d_430_2402)">
<rect x="73" y="323" width="185" height="116" rx="30" fill="#06D6A0"/>
<path d="M136.227 346.85V368H130.347V359.51H123.177V368H117.297V346.85H123.177V354.8H130.347V346.85H136.227ZM138.632 359.57C138.632 357.83 138.942 356.31 139.562 355.01C140.202 353.71 141.062 352.71 142.142 352.01C143.242 351.31 144.462 350.96 145.802 350.96C146.962 350.96 147.962 351.19 148.802 351.65C149.642 352.11 150.292 352.73 150.752 353.51V351.17H156.632V368H150.752V365.66C150.292 366.44 149.632 367.06 148.772 367.52C147.932 367.98 146.942 368.21 145.802 368.21C144.462 368.21 143.242 367.86 142.142 367.16C141.062 366.46 140.202 365.46 139.562 364.16C138.942 362.84 138.632 361.31 138.632 359.57ZM150.752 359.57C150.752 358.49 150.452 357.64 149.852 357.02C149.272 356.4 148.552 356.09 147.692 356.09C146.812 356.09 146.082 356.4 145.502 357.02C144.922 357.62 144.632 358.47 144.632 359.57C144.632 360.65 144.922 361.51 145.502 362.15C146.082 362.77 146.812 363.08 147.692 363.08C148.552 363.08 149.272 362.77 149.852 362.15C150.452 361.53 150.752 360.67 150.752 359.57ZM165.563 363.11H172.733V368H159.083V363.35L165.773 356.06H159.143V351.17H172.493V355.82L165.563 363.11ZM198.15 351.17V368H192.24V365.6C191.74 366.36 191.05 366.98 190.17 367.46C189.29 367.92 188.28 368.15 187.14 368.15C185.18 368.15 183.63 367.51 182.49 366.23C181.37 364.93 180.81 363.17 180.81 360.95V351.17H186.66V360.2C186.66 361.16 186.91 361.92 187.41 362.48C187.93 363.02 188.61 363.29 189.45 363.29C190.31 363.29 190.99 363.02 191.49 362.48C191.99 361.92 192.24 361.16 192.24 360.2V351.17H198.15ZM212.506 351.02C214.446 351.02 215.986 351.67 217.126 352.97C218.266 354.25 218.836 355.99 218.836 358.19V368H212.956V358.97C212.956 358.01 212.706 357.26 212.206 356.72C211.706 356.16 211.036 355.88 210.196 355.88C209.316 355.88 208.626 356.16 208.126 356.72C207.626 357.26 207.376 358.01 207.376 358.97V368H201.496V351.17H207.376V353.57C207.896 352.81 208.596 352.2 209.476 351.74C210.356 351.26 211.366 351.02 212.506 351.02ZM106.8 391.85C109.02 391.85 110.96 392.3 112.62 393.2C114.3 394.08 115.59 395.32 116.49 396.92C117.39 398.52 117.84 400.35 117.84 402.41C117.84 404.45 117.38 406.27 116.46 407.87C115.56 409.47 114.27 410.73 112.59 411.65C110.93 412.55 109 413 106.8 413H98.43V391.85H106.8ZM106.35 407.81C108.07 407.81 109.42 407.34 110.4 406.4C111.38 405.46 111.87 404.13 111.87 402.41C111.87 400.67 111.38 399.33 110.4 398.39C109.42 397.43 108.07 396.95 106.35 396.95H104.31V407.81H106.35ZM128.321 413.21C126.641 413.21 125.131 412.86 123.791 412.16C122.471 411.46 121.431 410.46 120.671 409.16C119.911 407.86 119.531 406.33 119.531 404.57C119.531 402.83 119.911 401.31 120.671 400.01C121.451 398.71 122.501 397.71 123.821 397.01C125.161 396.31 126.671 395.96 128.351 395.96C130.031 395.96 131.531 396.31 132.851 397.01C134.191 397.71 135.241 398.71 136.001 400.01C136.781 401.31 137.171 402.83 137.171 404.57C137.171 406.31 136.781 407.84 136.001 409.16C135.241 410.46 134.191 411.46 132.851 412.16C131.511 412.86 130.001 413.21 128.321 413.21ZM128.321 408.11C129.141 408.11 129.821 407.81 130.361 407.21C130.921 406.59 131.201 405.71 131.201 404.57C131.201 403.43 130.921 402.56 130.361 401.96C129.821 401.36 129.151 401.06 128.351 401.06C127.551 401.06 126.881 401.36 126.341 401.96C125.801 402.56 125.531 403.43 125.531 404.57C125.531 405.73 125.791 406.61 126.311 407.21C126.831 407.81 127.501 408.11 128.321 408.11ZM150.573 396.02C152.513 396.02 154.053 396.67 155.193 397.97C156.333 399.25 156.903 400.99 156.903 403.19V413H151.023V403.97C151.023 403.01 150.773 402.26 150.273 401.72C149.773 401.16 149.103 400.88 148.263 400.88C147.383 400.88 146.693 401.16 146.193 401.72C145.693 402.26 145.443 403.01 145.443 403.97V413H139.563V396.17H145.443V398.57C145.963 397.81 146.663 397.2 147.543 396.74C148.423 396.26 149.433 396.02 150.573 396.02ZM159.169 404.57C159.169 402.83 159.479 401.31 160.099 400.01C160.739 398.71 161.599 397.71 162.679 397.01C163.779 396.31 164.999 395.96 166.339 395.96C167.499 395.96 168.499 396.19 169.339 396.65C170.179 397.11 170.829 397.73 171.289 398.51V396.17H177.169V413H171.289V410.66C170.829 411.44 170.169 412.06 169.309 412.52C168.469 412.98 167.479 413.21 166.339 413.21C164.999 413.21 163.779 412.86 162.679 412.16C161.599 411.46 160.739 410.46 160.099 409.16C159.479 407.84 159.169 406.31 159.169 404.57ZM171.289 404.57C171.289 403.49 170.989 402.64 170.389 402.02C169.809 401.4 169.089 401.09 168.229 401.09C167.349 401.09 166.619 401.4 166.039 402.02C165.459 402.62 165.169 403.47 165.169 404.57C165.169 405.65 165.459 406.51 166.039 407.15C166.619 407.77 167.349 408.08 168.229 408.08C169.089 408.08 169.809 407.77 170.389 407.15C170.989 406.53 171.289 405.67 171.289 404.57ZM190.45 407.99V413H187.9C183.6 413 181.45 410.87 181.45 406.61V401.06H179.38V396.17H181.45V392.09H187.36V396.17H190.42V401.06H187.36V406.7C187.36 407.16 187.46 407.49 187.66 407.69C187.88 407.89 188.24 407.99 188.74 407.99H190.45ZM196.117 394.61C195.077 394.61 194.237 394.33 193.597 393.77C192.977 393.19 192.667 392.47 192.667 391.61C192.667 390.73 192.977 390 193.597 389.42C194.237 388.84 195.077 388.55 196.117 388.55C197.137 388.55 197.957 388.84 198.577 389.42C199.217 390 199.537 390.73 199.537 391.61C199.537 392.47 199.217 393.19 198.577 393.77C197.957 394.33 197.137 394.61 196.117 394.61ZM199.027 396.17V413H193.147V396.17H199.027ZM210.445 407.45L213.595 396.17H219.865L214.075 413H206.755L200.965 396.17H207.235L210.445 407.45ZM229.688 413.21C228.008 413.21 226.498 412.86 225.158 412.16C223.838 411.46 222.798 410.46 222.038 409.16C221.278 407.86 220.898 406.33 220.898 404.57C220.898 402.83 221.278 401.31 222.038 400.01C222.818 398.71 223.868 397.71 225.188 397.01C226.528 396.31 228.038 395.96 229.718 395.96C231.398 395.96 232.898 396.31 234.218 397.01C235.558 397.71 236.608 398.71 237.368 400.01C238.148 401.31 238.538 402.83 238.538 404.57C238.538 406.31 238.148 407.84 237.368 409.16C236.608 410.46 235.558 411.46 234.218 412.16C232.878 412.86 231.368 413.21 229.688 413.21ZM229.688 408.11C230.508 408.11 231.188 407.81 231.728 407.21C232.288 406.59 232.568 405.71 232.568 404.57C232.568 403.43 232.288 402.56 231.728 401.96C231.188 401.36 230.518 401.06 229.718 401.06C228.918 401.06 228.248 401.36 227.708 401.96C227.168 402.56 226.898 403.43 226.898 404.57C226.898 405.73 227.158 406.61 227.678 407.21C228.198 407.81 228.868 408.11 229.688 408.11Z" fill="#073B4C"/>
</g>
</g>
<defs>
<filter id="filter0_d_430_2402" x="331" y="323" width="193" height="124" filterUnits="userSpaceOnUse" color-interpolation-filters="sRGB">
<feFlood flood-opacity="0" result="BackgroundImageFix"/>
<feColorMatrix in="SourceAlpha" type="matrix" values="0 0 0 0 0 0 0 0 0 0 0 0 0 0 0 0 0 0 127 0" result="hardAlpha"/>
<feOffset dy="4"/>
<feGaussianBlur stdDeviation="2"/>
<feComposite in2="hardAlpha" operator="out"/>
<feColorMatrix type="matrix" values="0 0 0 0 0 0 0 0 0 0 0 0 0 0 0 0 0 0 0.25 0"/>
<feBlend mode="normal" in2="BackgroundImageFix" result="effect1_dropShadow_430_2402"/>
<feBlend mode="normal" in="SourceGraphic" in2="effect1_dropShadow_430_2402" result="shape"/>
</filter>
<filter id="filter1_d_430_2402" x="69" y="323" width="193" height="124" filterUnits="userSpaceOnUse" color-interpolation-filters="sRGB">
<feFlood flood-opacity="0" result="BackgroundImageFix"/>
<feColorMatrix in="SourceAlpha" type="matrix" values="0 0 0 0 0 0 0 0 0 0 0 0 0 0 0 0 0 0 127 0" result="hardAlpha"/>
<feOffset dy="4"/>
<feGaussianBlur stdDeviation="2"/>
<feComposite in2="hardAlpha" operator="out"/>
<feColorMatrix type="matrix" values="0 0 0 0 0 0 0 0 0 0 0 0 0 0 0 0 0 0 0.25 0"/>
<feBlend mode="normal" in2="BackgroundImageFix" result="effect1_dropShadow_430_2402"/>
<feBlend mode="normal" in="SourceGraphic" in2="effect1_dropShadow_430_2402" result="shape"/>
</filter>
<clipPath id="clip0_430_2402">
<rect width="1440" height="500" rx="20" fill="white"/>
</clipPath>
</defs>
</svg>
